<!DOCTYPE svg PUBLIC "-//W3C//DTD SVG 1.1//EN" "http://www.w3.org/Graphics/SVG/1.1/DTD/svg11.dtd">
<svg width="100%" height="100%" viewBox="0 0 30 30" version="1.1" xmlns="http://www.w3.org/2000/svg" xmlns:xlink="http://www.w3.org/1999/xlink" xml:space="preserve" xmlns:serif="http://www.serif.com/" style="fill-rule:evenodd;clip-rule:evenodd;stroke-linejoin:round;stroke-miterlimit:2;">
    <g transform="matrix(1.6138,0,0,1.6138,-1.20576,-0.766397)">
        <path d="M10,1.25C5.2,1.251 1.251,5.2 1.251,10C1.251,13.755 3.669,17.111 7.231,18.3C7.669,18.381 7.856,18.113 7.856,17.881L7.856,16.394C5.425,16.919 4.913,15.219 4.913,15.219C4.742,14.683 4.382,14.228 3.9,13.938C3.106,13.4 3.963,13.406 3.963,13.406C4.524,13.486 5.018,13.82 5.3,14.312C5.801,15.211 6.952,15.538 7.85,15.038C7.885,14.594 8.081,14.179 8.4,13.869C6.463,13.644 4.419,12.894 4.419,9.544C4.405,8.674 4.727,7.832 5.319,7.194C5.051,6.44 5.082,5.612 5.406,4.881C5.73,4.15 6.138,4.644 7.813,5.775C9.245,5.384 10.755,5.384 12.187,5.775C13.856,4.644 14.588,4.881 14.588,4.881C14.911,5.612 14.943,6.44 14.675,7.194C15.267,7.832 15.589,8.674 15.575,9.544C15.575,12.906 13.531,13.644 11.581,13.863C12.004,14.291 12.22,14.882 12.175,15.481L12.175,17.881C12.175,18.169 12.331,18.388 12.8,18.3C16.362,17.111 18.78,13.755 18.78,10C18.78,5.2 14.83,1.25 10.03,1.25C10.02,1.25 10.01,1.25 10,1.25Z"/>
    </g>
</svg>