<?xml version="1.0" encoding="UTF-8" standalone="no"?>
<!DOCTYPE svg PUBLIC "-//W3C//DTD SVG 1.1//EN" "http://www.w3.org/Graphics/SVG/1.1/DTD/svg11.dtd">
<svg width="100%" height="100%" viewBox="0 0 30 30" version="1.1" xmlns="http://www.w3.org/2000/svg" xmlns:xlink="http://www.w3.org/1999/xlink" xml:space="preserve" xmlns:serif="http://www.serif.com/" style="fill-rule:evenodd;clip-rule:evenodd;stroke-linejoin:round;stroke-miterlimit:2;">
    <g transform="matrix(1.47932,0,0,1.46055,-7.24038,-6.65937)">
        <g id="Icons">
            <g id="Icons_4_">
                <g>
                    <path d="M15,5.409C9.706,5.409 5.413,9.703 5.413,15.003C5.413,20.297 9.706,24.591 15,24.591C20.294,24.591 24.587,20.297 24.587,15.003C24.587,9.703 20.294,5.409 15,5.409ZM20.112,12.384C20.112,12.384 20.094,13.559 19.919,14.297C19.744,15.028 19.156,17.072 17.406,18.509C15.656,19.947 13.519,20.259 12.306,20.178C11.1,20.097 9.613,19.634 8.656,19.041C8.656,19.041 10.85,19.278 12.469,17.941C12.469,17.941 10.831,18.016 10.056,16.134C10.056,16.134 10.613,16.234 11.219,16.066C11.219,16.066 9.156,15.691 9.131,13.472C9.131,13.472 9.806,13.803 10.306,13.772C10.306,13.772 8.338,12.266 9.538,10.322C9.538,10.322 11.506,12.934 14.931,13.034C14.1,10.741 17.825,8.566 19.356,10.653C19.356,10.653 19.95,10.634 21.037,10.047C21.037,10.047 20.775,10.872 19.944,11.422C19.944,11.422 20.569,11.416 21.337,11.084C21.281,11.172 20.812,11.891 20.112,12.384Z" style="fill:rgb(74,160,236);fill-rule:nonzero;"/>
                </g>
            </g>
        </g>
    </g>
</svg>